<?xml version="1.0" encoding="UTF-8"?>
<svg width="800pt" height="313.3pt" style="isolation:isolate" viewBox="0 0 800 313.3" xmlns="http://www.w3.org/2000/svg">
<defs>
<clipPath id="a">
<rect width="800" height="313.3"/>
</clipPath>
</defs>
<g clip-path="url(#a)">
<path d="m0 7.502h68.521l90.029 214.82 83.025-194.56 41.513 63.019-96.53 213.57h-55.517l-131.04-296.84z" fill="#fff"/>
<path d="m268.58 7.002 96.53 138.54-116.04 158.8h68.021l117.54-158.8-97.03-138.54h-69.022z" fill="#a0cf4d"/>
<path d="m462.14 7.002-41.012 61.769 34.51 49.016 82.026-110.78h-75.524z" fill="#fff"/>
<path d="m454.14 172.05-40.513 50.265 62.52 82.026h75.023l-97.03-132.29z" fill="#fff"/>
<path d="m737.98 14.505q-21.007-14.505-65.021-14.505c-43.263 0-144.52 24.826-155.55 145.54-9.253 101.28 69.838 165.8 165.8 165.8q64.036 0 116.79-48.515v-103.03h-137.54l34.511 54.517h41.013v21.507q-33.761 22.007-54.517 20.506c-51.719-3.739-101.78-35.011-96.781-109.53 3.249-48.406 41.486-86.027 83.026-86.027q41.541 0 68.272 8.002v-54.266z" fill="#fff"/>
</g>
</svg>
