<svg xmlns="http://www.w3.org/2000/svg" viewBox="0 0 662.8 574"><defs><style>.cls-1{fill:#fa0;}</style></defs><title>Asset 1</title><g id="Layer_2" data-name="Layer 2"><g id="Layer_1-2" data-name="Layer 1"><polygon class="cls-1" points="586.87 418.51 662.8 287 497.65 0.95 542.29 209.88 586.87 418.51"/><path class="cls-1" d="M402.75,81.72,435.39,0H228.16l31.28,81.72,31.75,82.95c7.73,21.12,14.78,41.1,21.06,60.24s11.8,37.47,16.5,55.28h1.65c4.7-17.3,10.36-35.37,16.91-54.51s14-39.38,22.3-61Z"/><polygon class="cls-1" points="121.14 210.13 166.12 0 165.7 0 0 287 76.37 419.28 121.14 210.13"/><path class="cls-1" d="M198.9,444A130.53,130.53,0,0,1,299.37,317l-21.71-58.92-30.09-81.68c-8.84-24.18-17-47.33-24.23-69.53S209.74,63.4,204.49,43h-1.1c-.56,21.38-1.52,46.44-2.77,72.58s-2.76,53.38-4.41,79.08l-5,73.53-5,73.54-55.19,39.87-53.94,39L165.7,574H318A130.5,130.5,0,0,1,198.9,444Z"/><path class="cls-1" d="M530.42,381.39l-57-39.62-4.69-75.32-4.69-75.32c-1.39-23.91-2.9-50.25-4-75.95S458.25,64.42,458.52,43h-1.65c-6.35,20.1-13.4,40.84-21.2,62.47s-16.36,44.15-25.74,67.81l-32.86,83.21-23.4,59.23A130.51,130.51,0,0,1,340.78,574H497.1L586,420Z"/></g></g></svg>